inDegrees=yes
name=ik_lifting_orientations
DataType=double
version=3
OpenSimVersion=4.5-2024-01-10-34fd6af
endheader
time	pelvis_tilt	pelvis_list	pelvis_rotation	pelvis_tx	pelvis_ty	pelvis_tz	hip_flexion_r	hip_adduction_r	hip_rotation_r	knee_angle_r	knee_angle_r_beta	ankle_angle_r	subtalar_angle_r	mtp_angle_r	hip_flexion_l	hip_adduction_l	hip_rotation_l	knee_angle_l	knee_angle_l_beta	ankle_angle_l	subtalar_angle_l	mtp_angle_l	lumbar_extension	lumbar_bending	lumbar_rotation	arm_flex_r	arm_add_r	arm_rot_r	elbow_flex_r	pro_sup_r	wrist_flex_r	wrist_dev_r	arm_flex_l	arm_add_l	arm_rot_l	elbow_flex_l	pro_sup_l	wrist_flex_l	wrist_dev_l
0.61	-6.93211658627287	-6.192755461779472	-97.02636777073018	0	0.9399999998679526	0	45.10411405038682	-10.23820746812121	0	60.17134534422505	1.050188091611288	-5.071795907793699	0	0	45.10411405038682	-10.23820746812121	0	60.17134534422505	1.050188091611288	-5.071795907793699	0	0	-23.85454786675884	15.48788048814693	23.77910841291583	11.52365581863174	-15.01578056756816	-10.90757062165973	3.450847814645794	1.437425973222995	0	0	0	-11.40322012006458	0	88.58243303954706	1.437425973222995	0	0
0.62	-7.254225650194654	-6.439361020668613	-97.39296961938797	0	0.9399999998679526	0	45.10407896461894	-10.23792676035608	0	60.17130011403988	1.050187302195635	-5.07168555078797	0	0	45.10407896461894	-10.23792676035608	0	60.17130011403988	1.050187302195635	-5.07168555078797	0	0	-25.36281879453957	16.050074382824	25.07686252241134	12.24802942190149	-15.76286712397489	-10.90191446021092	3.35941724888845	1.43708899793256	0	0	0	-11.40384084442282	0	88.58276531631729	1.43708899793256	0	0
0.63	-7.44615601600781	-6.577119503704941	-97.63702385805452	0	0.9399999998679526	0	45.10405288782845	-10.23771819406716	0	60.17126650303086	1.050186715572863	-5.071603571331716	0	0	45.10405288782845	-10.23771819406716	0	60.17126650303086	1.050186715572863	-5.071603571331716	0	0	-26.72442064332815	16.53155395333033	26.26689886849606	12.76914540151273	-16.47451820806876	-10.9733727572646	3.269559206024122	1.436838549414291	0	0	0	-11.40430217324438	0	88.58301227277727	1.436838549414291	0	0
0.64	-7.595694472742161	-6.694240584080823	-97.78646800593106	0	0.9399999998679526	0	45.10402117133357	-10.23746451038559	0	60.17122564200645	1.050186002413452	-5.071503871535456	0	0	45.10402117133357	-10.23746451038559	0	60.17122564200645	1.050186002413452	-5.071503871535456	0	0	-28.1048232492913	16.95825948139729	27.53342743623282	13.41963438982356	-17.17182940229463	-11.08115132217769	3.134929068810406	1.436533972983049	0	0	0	-11.40486313872606	0	88.58331260243214	1.436533972983049	0	0
0.65	-7.751735316860604	-6.799741689969251	-97.945714546975	0	0.9399999998679526	0	45.10398333676965	-10.23716274153622	0	60.17117682891656	1.050185150464315	-5.071385369214795	0	0	45.10398333676965	-10.23716274153622	0	60.17117682891656	1.050185150464315	-5.071385369214795	0	0	-29.69550409864889	17.41143432785055	29.02717322933693	14.51259181815576	-18.12327518662984	-11.35679809940795	2.741121039895383	1.436170411188349	0	0	0	-11.40553307934939	0	88.58367109501128	1.436170411188349	0	0
0.66	-7.955683215009555	-6.952894654093323	-98.19509468741795	0	0.9399999998679526	0	45.1039460255849	-10.236865459762	0	60.17112867791285	1.050184310070762	-5.071268674531075	0	0	45.1039460255849	-10.236865459762	0	60.17112867791285	1.050184310070762	-5.071268674531075	0	0	-31.32598813170815	17.81316264132484	30.59081475767438	15.42480913561612	-18.99632465217522	-11.89492983244015	2.455537374139239	1.43581181425734	0	0	0	-11.40619395733773	0	88.58402469195504	1.43581181425734	0	0
0.67	-8.253661768860344	-7.189982734229179	-98.4629975972471	0	0.9399999998679526	0	45.10391153455116	-10.23659046963022	0	60.17108421839828	1.050183534105849	-5.071160739365331	0	0	45.10391153455116	-10.23659046963022	0	60.17108421839828	1.050183534105849	-5.071160739365331	0	0	-32.90237082582935	18.20115068670203	32.01472096085682	16.062589443941	-19.7052816125105	-12.16832101294891	2.303278726371396	1.435480445051694	0	0	0	-11.4068044458286	0	88.58435144081193	1.435480445051694	0	0
0.68	-8.591994451338165	-7.428180007764272	-98.82239212899069	0	0.9399999998679526	0	45.10388038955136	-10.23634462029909	0	60.17104380785879	1.050182828808882	-5.07106447054315	0	0	45.10388038955136	-10.23634462029909	0	60.17104380785879	1.050182828808882	-5.07106447054315	0	0	-34.39402959300673	18.4866101069302	33.49636892492648	16.77630885933697	-20.49649768731088	-12.56486862583187	2.057486378186463	1.435180426332784	0	0	0	-11.40735837689337	0	88.58464727633024	1.435180426332784	0	0
0.6899999999999999	-8.885494926714353	-7.639361898746395	-99.16801321016328	0	0.9399999998679526	0	45.1038491207009	-10.23609926439085	0	60.17100304856398	1.050182117424987	-5.070968511192746	0	0	45.1038491207009	-10.23609926439085	0	60.17100304856398	1.050182117424987	-5.070968511192746	0	0	-35.40227568995822	18.64934542937563	34.40098111739896	17.390051654895	-20.88847325861264	-12.599675648909	1.651845077813213	1.434878663238573	0	0	0	-11.40791639468062	0	88.58494483191737	1.434878663238573	0	0
0.7	-9.205941741498675	-7.86528851150527	-99.47667233366552	0	0.9399999998679526	0	45.10381179464101	-10.23580612231151	0	60.17095441039464	1.05018126852879	-5.070853831945636	0	0	45.10381179464101	-10.23580612231151	0	60.17095441039464	1.05018126852879	-5.070853831945636	0	0	-37.17989940461452	18.94635188452241	36.05823221169904	19.32721003760363	-22.03865483470155	-13.19383005887119	0.4675568944835482	1.434518488959584	0	0	0	-11.40858238321949	0	88.58529998425696	1.434518488959584	0	0
0.71	-9.639141640817641	-8.193467781425808	-99.8565240648996	0	0.9399999998679526	0	45.10377732263012	-10.23553441024561	0	60.17090969193484	1.05018048804443	-5.070747514114713	0	0	45.10377732263012	-10.23553441024561	0	60.17090969193484	1.05018048804443	-5.070747514114713	0	0	-39.19933321916955	19.26971466449466	37.8434249745547	20.33201624192237	-23.11207825386446	-13.63716532668181	0.2622946591068525	1.43418638262117	0	0	0	-11.40919558930248	0	88.58562745999492	1.43418638262117	0	0
0.72	-10.1522898479526	-8.54314761381662	-100.4160248081431	0	0.9399999998679526	0	45.10374001444777	-10.23524025692226	0	60.17086132882707	1.050179643948963	-5.07063242710541	0	0	45.10374001444777	-10.23524025692226	0	60.17086132882707	1.050179643948963	-5.07063242710541	0	0	-41.34649115510972	19.45904067882994	39.84341773694836	21.24012893748095	-24.22569455933543	-14.12328760844565	0.185502823039187	1.433827026893104	0	0	0	-11.40985898181926	0	88.58598180517932	1.433827026893104	0	0
0.73	-10.68935325692678	-8.903917515608487	-101.0388923472713	0	0.9399999998679526	0	45.10370547669605	-10.23496778172898	0	60.17081657731205	1.05017886288768	-5.070525809726939	0	0	45.10370547669605	-10.23496778172898	0	60.17081657731205	1.05017886288768	-5.070525809726939	0	0	-43.38702829704835	19.62490047582687	41.51904664185194	22.16631893906976	-25.16223360907545	-14.34699825414065	0.1319140036561678	1.433494403555558	0	0	0	-11.41047296244423	0	88.58630979070584	1.433494403555558	0	0
0.74	-11.20193286332359	-9.243315068698362	-101.5844296275617	0	0.9399999998679526	0	45.1036715656276	-10.2347000131649	0	60.17077268982423	1.050178096906518	-5.070421032611057	0	0	45.1036715656276	-10.2347000131649	0	60.17077268982423	1.050178096906518	-5.070421032611057	0	0	-45.3194128467568	19.81073936786713	42.91933105500847	23.01999919817009	-26.13793335593245	-14.52787282922428	0.1087560528943984	1.433167943271432	0	0	0	-11.41107535731629	0	88.58663169910811	1.433167943271432	0	0
0.75	-11.60425194645359	-9.540954958041493	-101.8100800766776	0	0.9399999998679526	0	45.10363882423739	-10.23444170624392	0	60.17073031563094	1.050177357337327	-5.070319997098149	0	0	45.10363882423739	-10.23444170624392	0	60.17073031563094	1.050177357337327	-5.070319997098149	0	0	-47.05922444164332	20.0948784244569	44.03277598367713	23.78788371588657	-27.25055738987624	-14.77977530032536	0.09716849153872907	1.432852717538769	0	0	0	-11.41165704324597	0	88.58694252960481	1.432852717538769	0	0
0.76	-11.96816107603973	-9.799859107223561	-101.9058158939705	0	0.9399999998679526	0	45.10359096347808	-10.23406352857011	0	60.17066849186433	1.050176278309043	-5.070172062038843	0	0	45.10359096347808	-10.23406352857011	0	60.17066849186433	1.050176278309043	-5.070172062038843	0	0	-48.80276907075478	20.35085750171228	45.19563195976384	24.5700780053691	-28.44749279301179	-15.17946872486911	0.08933757746884186	1.432392226292496	0	0	0	-11.41250629625602	0	88.5873966001505	1.432392226292496	0	0
0.77	-12.29597297912441	-10.09645934087638	-102.03275859103	0	0.9399999998679526	0	45.10353596419688	-10.23362926995766	0	60.17059746506789	1.050175038657588	-5.070002261356415	0	0	45.10353596419688	-10.23362926995766	0	60.17059746506789	1.050175038657588	-5.070002261356415	0	0	-50.52124380482746	20.56602312715938	46.30505278641798	25.33820386217234	-29.62458984705075	-15.5418995408201	0.08071944911159414	1.431863046724454	0	0	0	-11.4134822006562	0	88.58791840128715	1.431863046724454	0	0
0.78	-13.0294423305796	-10.48568108765004	-103.0032562204799	0	0.9399999998679526	0	45.10349615055377	-10.23331772881014	0	60.17054572052471	1.05017413554494	-5.069880688996066	0	0	45.10349615055377	-10.23331772881014	0	60.17054572052471	1.05017413554494	-5.069880688996066	0	0	-52.64662225370986	20.32181050838581	48.2283572265671	26.06919316414997	-30.71432637554886	-15.90461705966347	0.07511523767883975	1.431478994869506	0	0	0	-11.41419197605871	0	88.5882970982758	1.431478994869506	0	0
0.79	-13.38391133315753	-10.69186529652605	-103.4384867721256	0	0.9399999998679526	0	45.10344460721535	-10.23291289957342	0	60.17047898107116	1.050172970721734	-5.069722638828186	0	0	45.10344460721535	-10.23291289957342	0	60.17047898107116	1.050172970721734	-5.069722638828186	0	0	-54.22733565591336	20.08805241693239	49.80421561312608	26.68504000655122	-31.80964057779251	-16.68140846380909	0.06959808636743907	1.430982463771734	0	0	0	-11.41510855401957	0	88.5887867061826	1.430982463771734	0	0
0.8	-13.77662769957934	-10.90191171055693	-103.9707951634232	0	0.9399999998679526	0	45.10339769655233	-10.23254488301572	0	60.17041824334606	1.050171910648451	-5.069579038263331	0	0	45.10339769655233	-10.23254488301572	0	60.17041824334606	1.050171910648451	-5.069579038263331	0	0	-55.89969597692291	19.75939665907543	51.51621702177846	27.30389400003236	-32.8942819600146	-17.33661570359954	0.06611275170299037	1.430530518451277	0	0	0	-11.41594285614346	0	88.58923234997856	1.430530518451277	0	0
